<?xml version="1.0" encoding="utf-8"?>
<!-- Generator: Adobe Illustrator 21.1.0, SVG Export Plug-In . SVG Version: 6.00 Build 0)  -->
<svg version="1.1" id="Layer_1" xmlns="http://www.w3.org/2000/svg" xmlns:xlink="http://www.w3.org/1999/xlink" x="0px" y="0px"
	 viewBox="0 0 1269.9 279" style="enable-background:new 0 0 1269.9 279;" xml:space="preserve">
<style type="text/css">
	.st0{fill:#262638;}
	.st1{fill:#FFFFFF;}
	.st2{fill:#414258;}
	.st3{fill:#588D97;}
	.st4{fill:#315259;}
	.st5{fill:#F47C20;}
</style>
<g>
	<path class="st1" d="M177.7,1.1C124,2,85.9,34,85.9,82.1v0.8c0,53.4,34.9,68.3,89.1,82.1c44.9,11.5,54.1,19.2,54.1,34.2v0.8
		c0,15.7-14.5,25.3-38.5,25.3l-138.3-0.1c-17.7,0-32.1,14.2-32.5,31.8l0,0v20.6h62.9h94.9l13.1,0c57.2-0.5,97.3-30.3,97.3-83.3v-0.8
		c0-46.8-30.7-66.4-85.2-80.6c-46.4-11.9-58-17.7-58-35.3v-0.8c0-12.8,11.4-22.9,33-23.4v0h130.3V23.7V1.1L177.7,1.1L177.7,1.1z"/>
	<path class="st1" d="M778,196.1c0-18.3-14.8-33.1-33.1-33.1h-34.6h-18.9h-5.8L616.7,1.1h-38.4c-10.7,0-19.9,6.5-24,15.7l0,0
		l-96.9,227.6l0.2,0.1c-0.7,2.3-1,4.7-1,7.2c0,14.4,11.7,26.2,26.2,26.2h22.1l25.1-61.6h116.3l5.8,14.3H652l19.3,47.3h36.1h27.2
		l-10-23.5l-16.2-38.2H778C778,216.2,778,196.4,778,196.1z M551.5,162.9L588,73.7l29.1,70.9h0.1l7.4,18.2H551.5z"/>
	<path class="st1" d="M380.7,1.1c-0.4,0-19.8,0-19.8,0h-6.8v119v100.3v25c0,18,14.6,32.5,32.5,32.5h26.6v-119V33.6
		C413.3,15.7,398.7,1.1,380.7,1.1z"/>
</g>
<rect x="824.1" y="154.9" class="st1" width="5.7" height="122.7"/>
<path class="st1" d="M876.6,170.4l2.7-3.3c1.7,1.4,3.7,2.1,5.7,2.1c1.3,0,2-0.5,2-1.2V168c0-0.7-0.6-1.1-3-1.7
	c-3.8-0.9-6.7-1.9-6.7-5.6v-0.1c0-3.3,2.6-5.7,6.9-5.7c3,0,5.4,0.8,7.3,2.4l-2.5,3.5c-1.6-1.1-3.4-1.7-5-1.7c-1.2,0-1.8,0.5-1.8,1.1
	v0.1c0,0.8,0.6,1.2,3.1,1.7c4.1,0.9,6.6,2.2,6.6,5.5v0.1c0,3.6-2.9,5.8-7.2,5.8C881.8,173.3,878.8,172.3,876.6,170.4z"/>
<path class="st1" d="M898.9,164.2L898.9,164.2c0-5.1,4.1-9.3,9.6-9.3c5.5,0,9.5,4.1,9.5,9.2v0.1c0,5.1-4.1,9.2-9.6,9.2
	C902.9,173.4,898.9,169.3,898.9,164.2z M913,164.2L913,164.2c0-2.6-1.8-4.8-4.6-4.8c-2.7,0-4.5,2.2-4.5,4.7v0.1
	c0,2.6,1.8,4.8,4.5,4.8C911.2,168.9,913,166.7,913,164.2z"/>
<path class="st1" d="M925,164.2L925,164.2c0-5.2,4-9.3,9.3-9.3c3.6,0,5.9,1.5,7.5,3.7l-3.7,2.9c-1-1.3-2.2-2.1-3.9-2.1
	c-2.5,0-4.2,2.1-4.2,4.7v0.1c0,2.7,1.7,4.7,4.2,4.7c1.8,0,2.9-0.9,4-2.1l3.7,2.6c-1.7,2.3-3.9,4-7.8,4
	C929,173.4,925,169.5,925,164.2z"/>
<path class="st1" d="M949.2,155.3h4.9V173h-4.9V155.3z"/>
<path class="st1" d="M968.5,155.2h4.7l7.5,17.8h-5.3l-1.3-3.2h-6.8l-1.3,3.2H961L968.5,155.2z M972.8,166l-2-5l-2,5H972.8z"/>
<path class="st1" d="M987.6,155.3h4.9v13.4h8.6v4.3h-13.5V155.3z"/>
<path class="st1" d="M878.1,185.6h4.9v17.7h-4.9V185.6z"/>
<path class="st1" d="M891.3,185.6h4.6l7.3,9.4v-9.4h4.9v17.7h-4.3l-7.6-9.7v9.7h-4.9V185.6z"/>
<path class="st1" d="M914.8,185.6h5.5l4,11.2l4-11.2h5.4l-7.2,17.8H922L914.8,185.6z"/>
<path class="st1" d="M940.5,185.6h14.2v4.2h-9.4v2.7h8.5v3.9h-8.5v2.8h9.5v4.2h-14.4V185.6z"/>
<path class="st1" d="M961,200.7l2.7-3.3c1.7,1.4,3.7,2.1,5.7,2.1c1.3,0,2-0.5,2-1.2v-0.1c0-0.7-0.6-1.1-3-1.7
	c-3.8-0.9-6.7-1.9-6.7-5.6V191c0-3.3,2.6-5.7,6.9-5.7c3,0,5.4,0.8,7.3,2.4l-2.5,3.5c-1.6-1.1-3.4-1.7-5-1.7c-1.2,0-1.8,0.5-1.8,1.1
	v0.1c0,0.8,0.6,1.2,3.1,1.7c4.1,0.9,6.6,2.2,6.6,5.5v0.1c0,3.6-2.9,5.8-7.2,5.8C966.2,203.6,963.2,202.7,961,200.7z"/>
<path class="st1" d="M988.3,189.9h-5.3v-4.3h15.5v4.3h-5.3v13.4h-4.9V189.9z"/>
<path class="st1" d="M1005.7,185.6h5.2l4.2,6.9l4.2-6.9h5.2v17.7h-4.9v-10.2l-4.5,6.9h-0.1l-4.5-6.9v10.1h-4.8V185.6z"/>
<path class="st1" d="M1032.7,185.6h14.2v4.2h-9.4v2.7h8.5v3.9h-8.5v2.8h9.5v4.2h-14.4V185.6z"/>
<path class="st1" d="M1054.6,185.6h4.6l7.3,9.4v-9.4h4.9v17.7h-4.3l-7.6-9.7v9.7h-4.9V185.6z"/>
<path class="st1" d="M1083.8,189.9h-5.3v-4.3h15.5v4.3h-5.3v13.4h-4.9V189.9z"/>
<path class="st1" d="M884.1,215.9h4.7l7.5,17.8h-5.3l-1.3-3.2H883l-1.3,3.2h-5.2L884.1,215.9z M888.4,226.7l-2-5l-2,5H888.4z"/>
<path class="st1" d="M902.5,224.9L902.5,224.9c0-5.2,4-9.3,9.5-9.3c3.1,0,5.3,1,7.2,2.6l-2.9,3.5c-1.3-1.1-2.5-1.7-4.3-1.7
	c-2.6,0-4.5,2.1-4.5,4.9v0.1c0,2.9,2,4.9,4.8,4.9c1.2,0,2.1-0.3,2.8-0.7v-2.1h-3.5v-3.6h8.1v8c-1.9,1.5-4.5,2.7-7.7,2.7
	C906.6,234,902.5,230.2,902.5,224.9z"/>
<path class="st1" d="M927.6,216h14.2v4.2h-9.4v2.7h8.5v3.9h-8.5v2.8h9.5v4.2h-14.4V216z"/>
<path class="st1" d="M949.5,216h4.6l7.3,9.4V216h4.9v17.7H962l-7.6-9.7v9.7h-4.9V216z"/>
<path class="st1" d="M973.8,224.9L973.8,224.9c0-5.2,4-9.3,9.3-9.3c3.6,0,5.9,1.5,7.5,3.7l-3.7,2.9c-1-1.3-2.2-2.1-3.9-2.1
	c-2.5,0-4.2,2.1-4.2,4.7v0.1c0,2.7,1.7,4.7,4.2,4.7c1.8,0,2.9-0.9,4-2.1l3.7,2.6c-1.7,2.3-3.9,4-7.8,4
	C977.9,234,973.8,230.2,973.8,224.9z"/>
<path class="st1" d="M1003.1,227.1l-6.7-11.1h5.6l3.6,6.4l3.7-6.4h5.5l-6.7,11v6.7h-4.9V227.1z"/>
<g>
	<g>
		<path class="st1" d="M874.8,269L874.8,269c0-5,3.8-9.1,9.2-9.1c5.4,0,9.1,4.1,9.1,9v0c0,4.9-3.8,9.1-9.2,9.1
			C878.6,278,874.8,273.9,874.8,269z M889.9,269L889.9,269c0-3.5-2.5-6.3-6-6.3c-3.5,0-5.9,2.8-5.9,6.2v0c0,3.4,2.5,6.2,6,6.2
			C887.5,275.1,889.9,272.4,889.9,269z"/>
		<path class="st1" d="M901.9,260.1h7.8c2.2,0,3.9,0.7,5.1,1.8c0.9,1,1.5,2.3,1.5,3.8v0.1c0,2.9-1.7,4.6-4.2,5.3l4.7,6.6h-3.6
			l-4.3-6.1h0h-3.8v6.1h-3.1V260.1z M909.5,268.8c2.2,0,3.6-1.2,3.6-2.9v-0.1c0-1.9-1.4-2.9-3.6-2.9h-4.5v5.9H909.5z"/>
		<path class="st1" d="M931.2,260h2.9l7.7,17.6h-3.3l-1.8-4.2h-8.3l-1.8,4.2h-3.2L931.2,260z M935.6,270.7l-3-7l-3,7H935.6z"/>
		<path class="st1" d="M949.7,260.1h2.9l9.4,12.1v-12.1h3v17.5h-2.6l-9.7-12.5v12.5h-3V260.1z"/>
		<path class="st1" d="M973.7,269L973.7,269c0-5,3.8-9.1,9-9.1c3.1,0,4.9,0.9,6.7,2.4l-2,2.3c-1.4-1.2-2.7-1.9-4.9-1.9
			c-3.2,0-5.7,2.8-5.7,6.2v0c0,3.6,2.4,6.3,6,6.3c1.7,0,3.2-0.5,4.2-1.3v-3.3h-4.5v-2.7h7.5v7.4c-1.7,1.5-4.2,2.7-7.3,2.7
			C977.3,278,973.7,274.1,973.7,269z"/>
		<path class="st1" d="M1005.3,260h2.9l7.7,17.6h-3.3l-1.8-4.2h-8.3l-1.8,4.2h-3.2L1005.3,260z M1009.7,270.7l-3-7l-3,7H1009.7z"/>
	</g>
</g>
<g>
	<path class="st1" d="M1038.6,262.7h-5.6v-2.9h14.2v2.9h-5.6v14.7h-3.1V262.7z"/>
	<path class="st1" d="M1061.7,259.7h2.9l7.7,17.6h-3.3l-1.8-4.2h-8.3l-1.8,4.2h-3.2L1061.7,259.7z M1066.1,270.4l-3-7l-3,7H1066.1z"
		/>
	<path class="st1" d="M1080.3,259.8h2.9l9.4,12.1v-12.1h3v17.5h-2.6l-9.7-12.5v12.5h-3V259.8z"/>
	<path class="st1" d="M1104.3,268.7L1104.3,268.7c0-5,3.8-9.1,9-9.1c3.1,0,4.9,0.9,6.7,2.4l-2,2.3c-1.4-1.2-2.7-1.9-4.9-1.9
		c-3.2,0-5.7,2.8-5.7,6.2v0c0,3.6,2.4,6.3,6,6.3c1.7,0,3.2-0.5,4.2-1.3v-3.3h-4.5v-2.7h7.5v7.4c-1.7,1.5-4.2,2.7-7.3,2.7
		C1107.9,277.7,1104.3,273.8,1104.3,268.7z"/>
	<path class="st1" d="M1135.9,259.7h2.9l7.7,17.6h-3.3l-1.8-4.2h-8.3l-1.8,4.2h-3.2L1135.9,259.7z M1140.3,270.4l-3-7l-3,7H1140.3z"
		/>
	<path class="st1" d="M1158.7,262.7h-5.6v-2.9h14.2v2.9h-5.6v14.7h-3.1V262.7z"/>
	<path class="st1" d="M1181.8,259.7h2.9l7.7,17.6h-3.3l-1.8-4.2h-8.3l-1.8,4.2h-3.2L1181.8,259.7z M1186.2,270.4l-3-7l-3,7H1186.2z"
		/>
</g>
</svg>
