<svg id="Layer_1" data-name="Layer 1" xmlns="http://www.w3.org/2000/svg" viewBox="0 0 520 127.93"><title>SIU logos and icons</title><path d="M56.77,0v0C32,.46,14.47,15.21,14.47,37.37v.35c0,24.59,16.1,31.49,41,37.86,20.7,5.31,24.95,8.85,24.95,15.75v.35c0,7.23-6.68,11.64-17.76,11.67L15,103.29A15,15,0,0,0,0,117.93H0v9.48H62.7c26.37-.22,44.83-14,44.83-38.38v-.35c0-21.58-14.15-30.61-39.28-37.15C46.85,46,41.54,43.38,41.54,35.24v-.36c0-5.88,5.25-10.56,15.23-10.77h60V0Z" fill="#fff"/><path d="M330.61,15a15,15,0,0,0-15-15h-33a15,15,0,0,0-15,15c0,.17,0,57.76,0,57.76,0,19.64-10.09,29.72-26.71,29.72S214.18,92,214.18,71.87V0H186.93V72.57c0,36.44,20.35,55,53.61,55s54.31-18.4,54.31-57.35V30.48c0-4.37,1.88-5.89,4.86-6.35h30.9Z" fill="#fff"/><path d="M150.36,0H138.11v112.6a15,15,0,0,0,15,15h12.25V15A15,15,0,0,0,150.36,0Z" fill="#fff"/><path d="M346.63,77.19l2.18-2.6a7.27,7.27,0,0,0,4.58,1.69c1,0,1.61-.36,1.61-1v0c0-.58-.46-.91-2.38-1.35-3-.69-5.32-1.53-5.32-4.43v0c0-2.62,2.08-4.52,5.46-4.52a8.89,8.89,0,0,1,5.81,1.87l-2,2.76a7.07,7.07,0,0,0-4-1.39c-.95,0-1.41.4-1.41.91v0c0,.65.48.93,2.44,1.37,3.24.71,5.26,1.75,5.26,4.39v0c0,2.88-2.28,4.6-5.7,4.6A9.86,9.86,0,0,1,346.63,77.19Z" fill="#fff"/><path d="M364.39,72.27v0a7.6,7.6,0,0,1,15.2,0v0a7.6,7.6,0,0,1-15.2,0Zm11.21,0v0A3.67,3.67,0,0,0,372,68.42a3.6,3.6,0,0,0-3.57,3.77v0A3.66,3.66,0,0,0,372,76,3.6,3.6,0,0,0,375.6,72.27Z" fill="#fff"/><path d="M385.18,72.27v0a7.25,7.25,0,0,1,7.44-7.34,6.91,6.91,0,0,1,6,2.94l-2.94,2.28a3.78,3.78,0,0,0-3.08-1.65,3.49,3.49,0,0,0-3.37,3.73v0A3.49,3.49,0,0,0,392.58,76a3.85,3.85,0,0,0,3.18-1.71l2.94,2.1a7.43,7.43,0,0,1-13.53-4.11Z" fill="#fff"/><path d="M404.5,65.17h3.93V79.28H404.5Z" fill="#fff"/><path d="M419.92,65.07h3.77l6,14.21H425.5l-1-2.52H419l-1,2.52h-4.11Zm3.43,8.65-1.57-4-1.59,4Z" fill="#fff"/><path d="M435.1,65.17H439V75.85h6.83v3.43H435.1Z" fill="#fff"/><path d="M347.78,89.37h3.93v14.11h-3.93Z" fill="#fff"/><path d="M358.32,89.37H362l5.81,7.46V89.37h3.87v14.11h-3.43l-6-7.74v7.74h-3.87Z" fill="#fff"/><path d="M377.05,89.37h4.37l3.2,8.93,3.21-8.93h4.29l-5.72,14.21h-3.63Z" fill="#fff"/><path d="M397.54,89.37h11.35v3.33h-7.48v2.14h6.77v3.08h-6.77v2.24H409v3.33H397.54Z" fill="#fff"/><path d="M414,101.38l2.18-2.6a7.27,7.27,0,0,0,4.58,1.69c1,0,1.61-.36,1.61-1v0c0-.58-.46-.91-2.38-1.35-3-.69-5.32-1.53-5.32-4.43v0c0-2.62,2.08-4.51,5.46-4.51a8.88,8.88,0,0,1,5.8,1.87l-2,2.76a7.08,7.08,0,0,0-4-1.39c-.95,0-1.41.4-1.41.91v0c0,.64.48.93,2.44,1.37,3.25.71,5.26,1.75,5.26,4.39v0c0,2.88-2.28,4.6-5.7,4.6A9.85,9.85,0,0,1,414,101.38Z" fill="#fff"/><path d="M435.64,92.79h-4.23V89.37h12.38v3.43h-4.23v10.68h-3.91Z" fill="#fff"/><path d="M449.54,89.37h4.13L457,94.83l3.37-5.46h4.13v14.11h-3.89v-8.1L457,100.9H457l-3.59-5.48v8.06h-3.83Z" fill="#fff"/><path d="M471.07,89.37h11.35v3.33h-7.48v2.14h6.77v3.08h-6.77v2.24h7.58v3.33H471.07Z" fill="#fff"/><path d="M488.55,89.37h3.65L498,96.82V89.37h3.87v14.11h-3.43l-6-7.74v7.74h-3.87Z" fill="#fff"/><path d="M511.86,92.79h-4.23V89.37H520v3.43h-4.23v10.68h-3.91Z" fill="#fff"/><path d="M347.52,121.48v-7.92h4v7.84c0,2,1,3,2.6,3s2.6-.93,2.6-2.9v-7.94h4v7.82c0,4.56-2.6,6.55-6.61,6.55S347.52,125.9,347.52,121.48Z" fill="#fff"/><path d="M367,113.56h3.65l5.81,7.46v-7.46h3.87v14.11h-3.43l-6-7.74v7.74H367Z" fill="#fff"/><path d="M387,113.56h3.93v14.11H387Z" fill="#fff"/><path d="M400.95,117h-4.23v-3.43h12.38V117h-4.23v10.68h-3.91Z" fill="#fff"/><rect x="326.66" y="65.14" width="3.94" height="62.49" fill="#fff"/></svg>